<svg width="37" height="37" viewBox="0 0 37 37" fill="none" xmlns="http://www.w3.org/2000/svg">
<path opacity="0.1" fill-rule="evenodd" clip-rule="evenodd" d="M18.5 36C28.165 36 36 28.165 36 18.5C36 8.83502 28.165 1 18.5 1C8.83502 1 1 8.83502 1 18.5C1 28.165 8.83502 36 18.5 36Z" stroke="white" stroke-width="1.5"/>
<path d="M24.0002 9.6665H21.5002C20.3951 9.6665 19.3353 10.1055 18.5539 10.8869C17.7725 11.6683 17.3335 12.7281 17.3335 13.8332V16.3332H14.8335V19.6665H17.3335V26.3332H20.6668V19.6665H23.1668L24.0002 16.3332H20.6668V13.8332C20.6668 13.6122 20.7546 13.4002 20.9109 13.2439C21.0672 13.0876 21.2791 12.9998 21.5002 12.9998H24.0002V9.6665Z" fill="white"/>
</svg>
