<svg width="37" height="37" viewBox="0 0 37 37" fill="none" xmlns="http://www.w3.org/2000/svg">
<path opacity="0.1" fill-rule="evenodd" clip-rule="evenodd" d="M18.5 36C28.165 36 36 28.165 36 18.5C36 8.83502 28.165 1 18.5 1C8.83502 1 1 8.83502 1 18.5C1 28.165 8.83502 36 18.5 36Z" stroke="white" stroke-width="1.5"/>
<path d="M22.3335 14.6665C23.6596 14.6665 24.9313 15.1933 25.869 16.131C26.8067 17.0687 27.3335 18.3404 27.3335 19.6665V25.4998H24.0002V19.6665C24.0002 19.2245 23.8246 18.8006 23.512 18.488C23.1994 18.1754 22.7755 17.9998 22.3335 17.9998C21.8915 17.9998 21.4675 18.1754 21.155 18.488C20.8424 18.8006 20.6668 19.2245 20.6668 19.6665V25.4998H17.3335V19.6665C17.3335 18.3404 17.8603 17.0687 18.798 16.131C19.7356 15.1933 21.0074 14.6665 22.3335 14.6665Z" fill="white"/>
<path d="M13.9998 15.5H10.6665V25.5H13.9998V15.5Z" fill="white"/>
<path d="M12.3332 12.9998C13.2536 12.9998 13.9998 12.2536 13.9998 11.3332C13.9998 10.4127 13.2536 9.6665 12.3332 9.6665C11.4127 9.6665 10.6665 10.4127 10.6665 11.3332C10.6665 12.2536 11.4127 12.9998 12.3332 12.9998Z" fill="white"/>
</svg>
